<svg width="48" height="48" viewBox="0 0 48 48" fill="none" xmlns="http://www.w3.org/2000/svg">
<path fill-rule="evenodd" clip-rule="evenodd" d="M38 12L38 39C38 41.7614 35.7614 44 33 44L15 44C12.2386 44 10 41.7614 10 39L10 12L38 12ZM34 16L14 16L14 39C14 39.5523 14.4477 40 15 40L33 40C33.5523 40 34 39.5523 34 39L34 16Z" fill="#222222"/>
<path fill-rule="evenodd" clip-rule="evenodd" d="M14 9C14 6.23858 16.2386 4 19 4H29C31.7614 4 34 6.23858 34 9V14C34 15.1046 33.1046 16 32 16C30.8954 16 30 15.1046 30 14V9C30 8.44771 29.5523 8 29 8H19C18.4477 8 18 8.44772 18 9V14C18 15.1046 17.1046 16 16 16C14.8954 16 14 15.1046 14 14V9Z" fill="#222222"/>
<path fill-rule="evenodd" clip-rule="evenodd" d="M8 14C8 12.8954 8.89543 12 10 12H38C39.1046 12 40 12.8954 40 14C40 15.1046 39.1046 16 38 16H10C8.89543 16 8 15.1046 8 14Z" fill="#222222"/>
<path fill-rule="evenodd" clip-rule="evenodd" d="M20 20C21.1046 20 22 20.8954 22 22V34C22 35.1046 21.1046 36 20 36C18.8954 36 18 35.1046 18 34V22C18 20.8954 18.8954 20 20 20Z" fill="#222222"/>
<path fill-rule="evenodd" clip-rule="evenodd" d="M28 20C29.1046 20 30 20.8954 30 22V34C30 35.1046 29.1046 36 28 36C26.8954 36 26 35.1046 26 34V22C26 20.8954 26.8954 20 28 20Z" fill="#222222"/>
</svg>
